<mxfile host="Electron" modified="2023-06-13T17:32:20.302Z" agent="Mozilla/5.0 (Windows NT 10.0; Win64; x64) AppleWebKit/537.36 (KHTML, like Gecko) draw.io/21.3.7 Chrome/112.0.5615.204 Electron/24.5.0 Safari/537.36" etag="o4rbXyP_m9FxqdswqCrV" version="21.3.7" type="device">
  <diagram name="Page-1" id="MTGMyT_UPyCc4dCIj1r3">
    <mxGraphModel dx="1419" dy="819" grid="1" gridSize="10" guides="1" tooltips="1" connect="1" arrows="1" fold="1" page="1" pageScale="1" pageWidth="827" pageHeight="1169" math="0" shadow="0">
      <root>
        <mxCell id="0" />
        <mxCell id="1" parent="0" />
        <mxCell id="R5VcQp5RjEcSqdrqkfVP-9" style="edgeStyle=orthogonalEdgeStyle;rounded=0;orthogonalLoop=1;jettySize=auto;html=1;exitX=0;exitY=0;exitDx=0;exitDy=0;endArrow=none;endFill=0;startArrow=classic;startFill=1;" edge="1" parent="1" source="7wdnYyQ_7FeWBhe0fiND-1">
          <mxGeometry relative="1" as="geometry">
            <mxPoint x="40" y="103.39999999999998" as="targetPoint" />
          </mxGeometry>
        </mxCell>
        <mxCell id="R5VcQp5RjEcSqdrqkfVP-12" style="rounded=0;orthogonalLoop=1;jettySize=auto;html=1;exitX=1;exitY=0;exitDx=0;exitDy=0;entryX=0;entryY=1;entryDx=0;entryDy=0;" edge="1" parent="1" source="7wdnYyQ_7FeWBhe0fiND-1" target="7wdnYyQ_7FeWBhe0fiND-7">
          <mxGeometry relative="1" as="geometry" />
        </mxCell>
        <mxCell id="R5VcQp5RjEcSqdrqkfVP-13" style="rounded=0;orthogonalLoop=1;jettySize=auto;html=1;exitX=1;exitY=0;exitDx=0;exitDy=0;entryX=0;entryY=1;entryDx=0;entryDy=0;" edge="1" parent="1" source="7wdnYyQ_7FeWBhe0fiND-1" target="7wdnYyQ_7FeWBhe0fiND-8">
          <mxGeometry relative="1" as="geometry" />
        </mxCell>
        <mxCell id="7wdnYyQ_7FeWBhe0fiND-1" value="a" style="ellipse;whiteSpace=wrap;html=1;fontFamily=UGent Panno Text;fontSize=32;fillColor=#dae8fc;strokeColor=#6c8ebf;" parent="1" vertex="1">
          <mxGeometry x="120" y="80" width="80" height="160" as="geometry" />
        </mxCell>
        <mxCell id="R5VcQp5RjEcSqdrqkfVP-8" style="edgeStyle=orthogonalEdgeStyle;rounded=0;orthogonalLoop=1;jettySize=auto;html=1;exitX=0;exitY=0;exitDx=0;exitDy=0;startArrow=classic;startFill=1;endArrow=none;endFill=0;" edge="1" parent="1" source="7wdnYyQ_7FeWBhe0fiND-6">
          <mxGeometry relative="1" as="geometry">
            <mxPoint x="40" y="303.44000000000005" as="targetPoint" />
          </mxGeometry>
        </mxCell>
        <mxCell id="R5VcQp5RjEcSqdrqkfVP-14" style="edgeStyle=none;shape=connector;rounded=0;orthogonalLoop=1;jettySize=auto;html=1;exitX=1;exitY=0;exitDx=0;exitDy=0;entryX=0;entryY=1;entryDx=0;entryDy=0;labelBackgroundColor=default;strokeColor=default;fontFamily=Helvetica;fontSize=11;fontColor=default;endArrow=classic;" edge="1" parent="1" source="7wdnYyQ_7FeWBhe0fiND-6" target="7wdnYyQ_7FeWBhe0fiND-8">
          <mxGeometry relative="1" as="geometry" />
        </mxCell>
        <mxCell id="R5VcQp5RjEcSqdrqkfVP-15" style="edgeStyle=none;shape=connector;rounded=0;orthogonalLoop=1;jettySize=auto;html=1;exitX=1;exitY=0;exitDx=0;exitDy=0;entryX=0;entryY=1;entryDx=0;entryDy=0;labelBackgroundColor=default;strokeColor=default;fontFamily=Helvetica;fontSize=11;fontColor=default;endArrow=classic;" edge="1" parent="1" source="7wdnYyQ_7FeWBhe0fiND-6" target="7wdnYyQ_7FeWBhe0fiND-7">
          <mxGeometry relative="1" as="geometry" />
        </mxCell>
        <mxCell id="7wdnYyQ_7FeWBhe0fiND-6" value="c" style="ellipse;whiteSpace=wrap;html=1;fontFamily=UGent Panno Text;fontSize=32;fillColor=#dae8fc;strokeColor=#6c8ebf;" parent="1" vertex="1">
          <mxGeometry x="120" y="280" width="80" height="160" as="geometry" />
        </mxCell>
        <mxCell id="R5VcQp5RjEcSqdrqkfVP-6" style="edgeStyle=orthogonalEdgeStyle;rounded=0;orthogonalLoop=1;jettySize=auto;html=1;exitX=1;exitY=0;exitDx=0;exitDy=0;endArrow=none;endFill=0;startArrow=classic;startFill=1;" edge="1" parent="1" source="7wdnYyQ_7FeWBhe0fiND-7">
          <mxGeometry relative="1" as="geometry">
            <mxPoint x="640" y="303.5348837209302" as="targetPoint" />
          </mxGeometry>
        </mxCell>
        <mxCell id="R5VcQp5RjEcSqdrqkfVP-7" style="edgeStyle=orthogonalEdgeStyle;rounded=0;orthogonalLoop=1;jettySize=auto;html=1;exitX=1;exitY=1;exitDx=0;exitDy=0;" edge="1" parent="1" source="7wdnYyQ_7FeWBhe0fiND-7">
          <mxGeometry relative="1" as="geometry">
            <mxPoint x="640" y="416.5581395348837" as="targetPoint" />
          </mxGeometry>
        </mxCell>
        <mxCell id="R5VcQp5RjEcSqdrqkfVP-18" style="edgeStyle=none;shape=connector;rounded=0;orthogonalLoop=1;jettySize=auto;html=1;exitX=0;exitY=0;exitDx=0;exitDy=0;entryX=1;entryY=1;entryDx=0;entryDy=0;labelBackgroundColor=default;strokeColor=default;fontFamily=Helvetica;fontSize=11;fontColor=default;endArrow=classic;" edge="1" parent="1" source="7wdnYyQ_7FeWBhe0fiND-7" target="7wdnYyQ_7FeWBhe0fiND-6">
          <mxGeometry relative="1" as="geometry" />
        </mxCell>
        <mxCell id="R5VcQp5RjEcSqdrqkfVP-19" style="edgeStyle=none;shape=connector;rounded=0;orthogonalLoop=1;jettySize=auto;html=1;exitX=0;exitY=0;exitDx=0;exitDy=0;entryX=1;entryY=1;entryDx=0;entryDy=0;labelBackgroundColor=default;strokeColor=default;fontFamily=Helvetica;fontSize=11;fontColor=default;endArrow=classic;" edge="1" parent="1" source="7wdnYyQ_7FeWBhe0fiND-7" target="7wdnYyQ_7FeWBhe0fiND-1">
          <mxGeometry relative="1" as="geometry" />
        </mxCell>
        <mxCell id="7wdnYyQ_7FeWBhe0fiND-7" value="d" style="ellipse;whiteSpace=wrap;html=1;fontFamily=UGent Panno Text;fontSize=32;fillColor=#dae8fc;strokeColor=#6c8ebf;" parent="1" vertex="1">
          <mxGeometry x="480" y="280" width="80" height="160" as="geometry" />
        </mxCell>
        <mxCell id="R5VcQp5RjEcSqdrqkfVP-4" style="edgeStyle=orthogonalEdgeStyle;rounded=0;orthogonalLoop=1;jettySize=auto;html=1;exitX=1;exitY=0;exitDx=0;exitDy=0;startArrow=classic;startFill=1;endArrow=none;endFill=0;" edge="1" parent="1" source="7wdnYyQ_7FeWBhe0fiND-8">
          <mxGeometry relative="1" as="geometry">
            <mxPoint x="640" y="103.42458100558662" as="targetPoint" />
          </mxGeometry>
        </mxCell>
        <mxCell id="R5VcQp5RjEcSqdrqkfVP-5" style="edgeStyle=orthogonalEdgeStyle;rounded=0;orthogonalLoop=1;jettySize=auto;html=1;exitX=1;exitY=1;exitDx=0;exitDy=0;" edge="1" parent="1" source="7wdnYyQ_7FeWBhe0fiND-8">
          <mxGeometry relative="1" as="geometry">
            <mxPoint x="640" y="216.60893854748605" as="targetPoint" />
          </mxGeometry>
        </mxCell>
        <mxCell id="R5VcQp5RjEcSqdrqkfVP-16" style="edgeStyle=none;shape=connector;rounded=0;orthogonalLoop=1;jettySize=auto;html=1;exitX=0;exitY=0;exitDx=0;exitDy=0;entryX=1;entryY=1;entryDx=0;entryDy=0;labelBackgroundColor=default;strokeColor=default;fontFamily=Helvetica;fontSize=11;fontColor=default;endArrow=classic;" edge="1" parent="1" source="7wdnYyQ_7FeWBhe0fiND-8" target="7wdnYyQ_7FeWBhe0fiND-1">
          <mxGeometry relative="1" as="geometry" />
        </mxCell>
        <mxCell id="R5VcQp5RjEcSqdrqkfVP-17" style="edgeStyle=none;shape=connector;rounded=0;orthogonalLoop=1;jettySize=auto;html=1;exitX=0;exitY=0;exitDx=0;exitDy=0;entryX=1;entryY=1;entryDx=0;entryDy=0;labelBackgroundColor=default;strokeColor=default;fontFamily=Helvetica;fontSize=11;fontColor=default;endArrow=classic;" edge="1" parent="1" source="7wdnYyQ_7FeWBhe0fiND-8" target="7wdnYyQ_7FeWBhe0fiND-6">
          <mxGeometry relative="1" as="geometry" />
        </mxCell>
        <mxCell id="7wdnYyQ_7FeWBhe0fiND-8" value="b" style="ellipse;whiteSpace=wrap;html=1;fontFamily=UGent Panno Text;fontSize=32;fillColor=#dae8fc;strokeColor=#6c8ebf;" parent="1" vertex="1">
          <mxGeometry x="480" y="80" width="80" height="160" as="geometry" />
        </mxCell>
        <mxCell id="7wdnYyQ_7FeWBhe0fiND-11" value="" style="endArrow=none;html=1;rounded=0;entryX=0;entryY=1;entryDx=0;entryDy=0;startArrow=classic;startFill=1;endFill=0;" parent="1" target="7wdnYyQ_7FeWBhe0fiND-1" edge="1">
          <mxGeometry width="50" height="50" relative="1" as="geometry">
            <mxPoint x="40" y="217" as="sourcePoint" />
            <mxPoint x="110" y="220" as="targetPoint" />
          </mxGeometry>
        </mxCell>
        <mxCell id="7wdnYyQ_7FeWBhe0fiND-13" value="" style="endArrow=none;html=1;rounded=0;entryX=0;entryY=1;entryDx=0;entryDy=0;startArrow=classic;startFill=1;endFill=0;" parent="1" edge="1">
          <mxGeometry width="50" height="50" relative="1" as="geometry">
            <mxPoint x="40" y="416.86" as="sourcePoint" />
            <mxPoint x="132" y="416.86" as="targetPoint" />
          </mxGeometry>
        </mxCell>
        <mxCell id="R5VcQp5RjEcSqdrqkfVP-20" value="a1" style="ellipse;whiteSpace=wrap;html=1;aspect=fixed;fontFamily=UGent Panno Text;fontSize=32;fontColor=default;" vertex="1" parent="1">
          <mxGeometry x="140" y="80" width="40" height="40" as="geometry" />
        </mxCell>
        <mxCell id="R5VcQp5RjEcSqdrqkfVP-21" value="a2" style="ellipse;whiteSpace=wrap;html=1;aspect=fixed;fontFamily=UGent Panno Text;fontSize=32;fontColor=default;" vertex="1" parent="1">
          <mxGeometry x="140" y="200" width="40" height="40" as="geometry" />
        </mxCell>
        <mxCell id="R5VcQp5RjEcSqdrqkfVP-22" value="c1" style="ellipse;whiteSpace=wrap;html=1;aspect=fixed;fontFamily=UGent Panno Text;fontSize=32;fillColor=#d5e8d4;strokeColor=#82b366;" vertex="1" parent="1">
          <mxGeometry x="140" y="280" width="40" height="40" as="geometry" />
        </mxCell>
        <mxCell id="R5VcQp5RjEcSqdrqkfVP-23" value="c2" style="ellipse;whiteSpace=wrap;html=1;aspect=fixed;fontFamily=UGent Panno Text;fontSize=32;fontColor=default;" vertex="1" parent="1">
          <mxGeometry x="140" y="400" width="40" height="40" as="geometry" />
        </mxCell>
        <mxCell id="R5VcQp5RjEcSqdrqkfVP-24" value="d1" style="ellipse;whiteSpace=wrap;html=1;aspect=fixed;fontFamily=UGent Panno Text;fontSize=32;fillColor=#d5e8d4;strokeColor=#82b366;" vertex="1" parent="1">
          <mxGeometry x="500" y="280" width="40" height="40" as="geometry" />
        </mxCell>
        <mxCell id="R5VcQp5RjEcSqdrqkfVP-25" value="d2" style="ellipse;whiteSpace=wrap;html=1;aspect=fixed;fontFamily=UGent Panno Text;fontSize=32;fillColor=#d5e8d4;strokeColor=#82b366;" vertex="1" parent="1">
          <mxGeometry x="500" y="400" width="40" height="40" as="geometry" />
        </mxCell>
        <mxCell id="R5VcQp5RjEcSqdrqkfVP-26" value="b1" style="ellipse;whiteSpace=wrap;html=1;aspect=fixed;fontFamily=UGent Panno Text;fontSize=32;fillColor=#d5e8d4;strokeColor=#82b366;" vertex="1" parent="1">
          <mxGeometry x="500" y="80" width="40" height="40" as="geometry" />
        </mxCell>
        <mxCell id="R5VcQp5RjEcSqdrqkfVP-27" value="b2" style="ellipse;whiteSpace=wrap;html=1;aspect=fixed;fontFamily=UGent Panno Text;fontSize=32;fillColor=#d5e8d4;strokeColor=#82b366;" vertex="1" parent="1">
          <mxGeometry x="500" y="200" width="40" height="40" as="geometry" />
        </mxCell>
        <mxCell id="R5VcQp5RjEcSqdrqkfVP-28" value="a2" style="ellipse;whiteSpace=wrap;html=1;aspect=fixed;fontFamily=UGent Panno Text;fontSize=32;fontColor=default;" vertex="1" parent="1">
          <mxGeometry x="140" y="200" width="40" height="40" as="geometry" />
        </mxCell>
        <mxCell id="R5VcQp5RjEcSqdrqkfVP-29" value="a1" style="ellipse;whiteSpace=wrap;html=1;aspect=fixed;fontFamily=UGent Panno Text;fontSize=32;fontColor=default;" vertex="1" parent="1">
          <mxGeometry x="140" y="80" width="40" height="40" as="geometry" />
        </mxCell>
        <mxCell id="R5VcQp5RjEcSqdrqkfVP-30" value="a2" style="ellipse;whiteSpace=wrap;html=1;aspect=fixed;fontFamily=UGent Panno Text;fontSize=32;fillColor=#d5e8d4;strokeColor=#82b366;" vertex="1" parent="1">
          <mxGeometry x="140" y="200" width="40" height="40" as="geometry" />
        </mxCell>
        <mxCell id="R5VcQp5RjEcSqdrqkfVP-31" value="a1" style="ellipse;whiteSpace=wrap;html=1;aspect=fixed;fontFamily=UGent Panno Text;fontSize=32;fillColor=#d5e8d4;strokeColor=#82b366;" vertex="1" parent="1">
          <mxGeometry x="140" y="80" width="40" height="40" as="geometry" />
        </mxCell>
        <mxCell id="R5VcQp5RjEcSqdrqkfVP-32" value="c2" style="ellipse;whiteSpace=wrap;html=1;aspect=fixed;fontFamily=UGent Panno Text;fontSize=32;fillColor=#d5e8d4;strokeColor=#82b366;" vertex="1" parent="1">
          <mxGeometry x="140" y="400" width="40" height="40" as="geometry" />
        </mxCell>
      </root>
    </mxGraphModel>
  </diagram>
</mxfile>
